<!-- Generated by IcoMoon.io -->
<svg version="1.1" xmlns="http://www.w3.org/2000/svg" width="28" height="28" viewBox="0 0 28 28">
<title>sun-o</title>
<path fill="#011111" d="M23 14c0-4.969-4.031-9-9-9s-9 4.031-9 9 4.031 9 9 9 9-4.031 9-9zM27.312 18.328c-0.047 0.156-0.172 0.266-0.313 0.313l-4.562 1.5v4.781c0 0.156-0.078 0.313-0.203 0.406-0.141 0.094-0.297 0.125-0.453 0.063l-4.562-1.469-2.812 3.875c-0.094 0.125-0.25 0.203-0.406 0.203s-0.313-0.078-0.406-0.203l-2.812-3.875-4.562 1.469c-0.156 0.063-0.313 0.031-0.453-0.063-0.125-0.094-0.203-0.25-0.203-0.406v-4.781l-4.562-1.5c-0.141-0.047-0.266-0.156-0.313-0.313s-0.031-0.328 0.063-0.453l2.812-3.875-2.812-3.875c-0.094-0.141-0.109-0.297-0.063-0.453s0.172-0.266 0.313-0.313l4.562-1.5v-4.781c0-0.156 0.078-0.313 0.203-0.406 0.141-0.094 0.297-0.125 0.453-0.063l4.562 1.469 2.812-3.875c0.187-0.25 0.625-0.25 0.812 0l2.812 3.875 4.562-1.469c0.156-0.063 0.313-0.031 0.453 0.063 0.125 0.094 0.203 0.25 0.203 0.406v4.781l4.562 1.5c0.141 0.047 0.266 0.156 0.313 0.313s0.031 0.313-0.063 0.453l-2.812 3.875 2.812 3.875c0.094 0.125 0.109 0.297 0.063 0.453z"></path>
</svg>
